<svg width="34" height="30" viewBox="0 0 34 30" fill="none" xmlns="http://www.w3.org/2000/svg">
<circle cx="13.8032" cy="16.2158" r="13.4024" fill="#237F75" fill-opacity="0.1"/>
<g clip-path="url(#clip0_2427_10622)">
<path d="M31.3941 10.7715C30.9497 10.7715 30.5236 10.948 30.2094 11.2622C29.8953 11.5763 29.7188 12.0025 29.7188 12.4468V14.1221C29.7188 14.3442 29.6305 14.5573 29.4734 14.7144C29.3163 14.8715 29.1033 14.9597 28.8811 14.9597H12.1282C11.906 14.9597 11.693 14.8715 11.5359 14.7144C11.3788 14.5573 11.2905 14.3442 11.2905 14.1221V12.4468C11.2905 12.0025 11.114 11.5763 10.7998 11.2622C10.4857 10.948 10.0596 10.7715 9.61524 10.7715C9.17092 10.7715 8.7448 10.948 8.43062 11.2622C8.11645 11.5763 7.93994 12.0025 7.93994 12.4468V15.7974C7.93994 16.686 8.29295 17.5382 8.92131 18.1666C9.54966 18.7949 10.4019 19.148 11.2905 19.148H29.7188C30.6074 19.148 31.4596 18.7949 32.088 18.1666C32.7163 17.5382 33.0694 16.686 33.0694 15.7974V12.4468C33.0694 12.0025 32.8928 11.5763 32.5787 11.2622C32.2645 10.948 31.8384 10.7715 31.3941 10.7715Z" stroke="#2F80ED" stroke-width="1.67529" stroke-linecap="round" stroke-linejoin="round"/>
<path d="M11.2896 19.1484V21.6614" stroke="#2F80ED" stroke-width="1.67529" stroke-linecap="round" stroke-linejoin="round"/>
<path d="M29.7173 19.1484V21.6614" stroke="#2F80ED" stroke-width="1.67529" stroke-linecap="round" stroke-linejoin="round"/>
<path d="M9.61377 10.772C9.61377 9.43903 10.1433 8.16068 11.0858 7.21814C12.0284 6.2756 13.3067 5.74609 14.6397 5.74609H26.3667C27.6997 5.74609 28.978 6.2756 29.9205 7.21814C30.8631 8.16068 31.3926 9.43903 31.3926 10.772" stroke="#2F80ED" stroke-width="1.67529" stroke-linecap="round" stroke-linejoin="round"/>
<path d="M20.5044 14.9602V5.74609" stroke="#2F80ED" stroke-width="1.67529" stroke-linecap="round" stroke-linejoin="round"/>
</g>
<defs>
<clipPath id="clip0_2427_10622">
<rect width="26.8047" height="26.8047" fill="white" transform="translate(7.10205 0.300781)"/>
</clipPath>
</defs>
</svg>
